<svg id="Layer_1" data-name="Layer 1" xmlns="http://www.w3.org/2000/svg" xmlns:xlink="http://www.w3.org/1999/xlink" viewBox="0 0 346.99 380.82"><defs><linearGradient id="linear-gradient" x1="206.41" y1="264.65" x2="198.61" y2="382.43" gradientUnits="userSpaceOnUse"><stop offset="0.01"/><stop offset="0.13" stop-opacity="0.69"/><stop offset="1" stop-opacity="0"/></linearGradient><linearGradient id="linear-gradient-2" x1="161.36" y1="179.22" x2="390.31" y2="169.94" xlink:href="#linear-gradient"/><linearGradient id="linear-gradient-3" x1="248.2" y1="335.95" x2="242.01" y2="166.83" xlink:href="#linear-gradient"/><linearGradient id="linear-gradient-4" x1="242.51" y1="238.39" x2="256.89" y2="354.19" xlink:href="#linear-gradient"/><linearGradient id="linear-gradient-5" x1="163.74" y1="52.99" x2="157.93" y2="127.03" xlink:href="#linear-gradient"/><linearGradient id="linear-gradient-6" x1="205.38" y1="52.39" x2="199.5" y2="127.36" xlink:href="#linear-gradient"/><linearGradient id="linear-gradient-7" x1="198.68" y1="48.72" x2="192.8" y2="123.69" xlink:href="#linear-gradient"/><linearGradient id="linear-gradient-8" x1="236.5" y1="48.72" x2="230.62" y2="123.69" xlink:href="#linear-gradient"/><linearGradient id="linear-gradient-9" x1="201.97" y1="77.09" x2="209.33" y2="144.8" gradientUnits="userSpaceOnUse"><stop offset="0.02" stop-color="#fff" stop-opacity="0"/><stop offset="0.32" stop-color="#fff" stop-opacity="0.39"/><stop offset="0.68" stop-color="#fff" stop-opacity="0.68"/><stop offset="1" stop-color="#fff"/></linearGradient><linearGradient id="linear-gradient-10" x1="181.87" y1="79.28" x2="189.23" y2="146.98" xlink:href="#linear-gradient"/><linearGradient id="linear-gradient-11" x1="242.16" y1="72.84" x2="249.52" y2="140.54" xlink:href="#linear-gradient-9"/><linearGradient id="linear-gradient-12" x1="260.96" y1="73.44" x2="268.2" y2="140.05" xlink:href="#linear-gradient"/><linearGradient id="linear-gradient-13" x1="161.77" y1="81.46" x2="169.13" y2="149.16" xlink:href="#linear-gradient-9"/><linearGradient id="linear-gradient-14" x1="222.07" y1="74.91" x2="229.42" y2="142.61" xlink:href="#linear-gradient"/><linearGradient id="linear-gradient-15" x1="141.68" y1="83.65" x2="149.04" y2="151.35" xlink:href="#linear-gradient"/><linearGradient id="linear-gradient-16" x1="111.25" y1="78.44" x2="159.48" y2="78.44" xlink:href="#linear-gradient-9"/><linearGradient id="linear-gradient-17" x1="152.02" y1="78.34" x2="199.01" y2="78.34" xlink:href="#linear-gradient-9"/><linearGradient id="linear-gradient-18" x1="192.78" y1="78.34" x2="239.78" y2="78.34" xlink:href="#linear-gradient-9"/><linearGradient id="linear-gradient-19" x1="274.68" y1="92.65" x2="221.28" y2="66.52" xlink:href="#linear-gradient"/><linearGradient id="linear-gradient-20" x1="181.04" y1="274.41" x2="184.25" y2="328.04" xlink:href="#linear-gradient"/><linearGradient id="linear-gradient-21" x1="248.94" y1="191.36" x2="264.05" y2="248.83" gradientUnits="userSpaceOnUse"><stop offset="0" stop-opacity="0"/><stop offset="0.99"/></linearGradient><linearGradient id="linear-gradient-22" x1="205.59" y1="194.81" x2="183.2" y2="208.53" xlink:href="#linear-gradient"/><linearGradient id="linear-gradient-23" x1="181.7" y1="190.68" x2="137.24" y2="242.24" xlink:href="#linear-gradient-21"/><linearGradient id="linear-gradient-24" x1="999.4" y1="-527.13" x2="1026.35" y2="-527.13" gradientTransform="translate(-487.89 1033.36) rotate(-21.89)" gradientUnits="userSpaceOnUse"><stop offset="0" stop-color="#e5c5d5"/><stop offset="0.42" stop-color="#ead4d1"/><stop offset="1" stop-color="#f0e9cb"/></linearGradient><linearGradient id="linear-gradient-25" x1="200.38" y1="195.22" x2="212.46" y2="292.53" xlink:href="#linear-gradient"/><linearGradient id="linear-gradient-26" x1="204.88" y1="198.85" x2="218.77" y2="198.85" gradientTransform="matrix(1, 0, 0, 1, 0, 0)" xlink:href="#linear-gradient-24"/><linearGradient id="linear-gradient-27" x1="203.71" y1="195.62" x2="203.71" y2="195.5" xlink:href="#linear-gradient-21"/><linearGradient id="linear-gradient-28" x1="208.14" y1="195.62" x2="208.14" y2="195.5" xlink:href="#linear-gradient-21"/><linearGradient id="linear-gradient-29" x1="211.91" y1="195.62" x2="211.91" y2="195.5" xlink:href="#linear-gradient-21"/><linearGradient id="linear-gradient-30" x1="216.24" y1="195.62" x2="216.24" y2="195.5" xlink:href="#linear-gradient-21"/><linearGradient id="linear-gradient-31" x1="222.88" y1="195.62" x2="222.88" y2="195.5" xlink:href="#linear-gradient-21"/><linearGradient id="linear-gradient-32" x1="227.85" y1="195.62" x2="227.85" y2="195.5" xlink:href="#linear-gradient-21"/><linearGradient id="linear-gradient-33" x1="232.62" y1="195.62" x2="232.62" y2="195.5" xlink:href="#linear-gradient-21"/><linearGradient id="linear-gradient-34" x1="-94.24" y1="687.57" x2="-81.81" y2="752.73" gradientTransform="translate(288.83 -366.92) rotate(7.72)" xlink:href="#linear-gradient"/><linearGradient id="linear-gradient-35" x1="-77.45" y1="682.38" x2="-65.02" y2="747.54" gradientTransform="translate(288.83 -366.92) rotate(7.72)" xlink:href="#linear-gradient"/><linearGradient id="linear-gradient-36" x1="-63.42" y1="689.6" x2="-50.99" y2="754.76" gradientTransform="translate(288.83 -366.92) rotate(7.72)" xlink:href="#linear-gradient"/><linearGradient id="linear-gradient-37" x1="-46.63" y1="684.41" x2="-34.2" y2="749.57" gradientTransform="translate(288.83 -366.92) rotate(7.72)" xlink:href="#linear-gradient"/><linearGradient id="linear-gradient-38" x1="480.18" y1="-202.76" x2="493.54" y2="-132.73" gradientTransform="translate(-344.6 620.3) rotate(-11.66)" xlink:href="#linear-gradient"/><linearGradient id="linear-gradient-39" x1="498.23" y1="-208.34" x2="511.59" y2="-138.31" gradientTransform="translate(-344.6 620.3) rotate(-11.66)" xlink:href="#linear-gradient"/><linearGradient id="linear-gradient-40" x1="-89.4" y1="2490.87" x2="-76.04" y2="2560.91" gradientTransform="translate(1967.51 -1560.92) rotate(39.16)" xlink:href="#linear-gradient"/><linearGradient id="linear-gradient-41" x1="-71.35" y1="2485.29" x2="-57.99" y2="2555.33" gradientTransform="translate(1967.51 -1560.92) rotate(39.16)" xlink:href="#linear-gradient"/><linearGradient id="linear-gradient-42" x1="-76.11" y1="2472.73" x2="-62.75" y2="2542.77" gradientTransform="translate(1967.51 -1560.92) rotate(39.16)" xlink:href="#linear-gradient"/><linearGradient id="linear-gradient-43" x1="-58.06" y1="2467.15" x2="-44.7" y2="2537.19" gradientTransform="translate(1967.51 -1560.92) rotate(39.16)" xlink:href="#linear-gradient"/><linearGradient id="linear-gradient-44" x1="1399.98" y1="4801.96" x2="1413.34" y2="4872" gradientTransform="translate(5071.32 -1130.8) rotate(89.08)" xlink:href="#linear-gradient"/><linearGradient id="linear-gradient-45" x1="1418.03" y1="4796.38" x2="1431.39" y2="4866.42" gradientTransform="translate(5071.32 -1130.8) rotate(89.08)" xlink:href="#linear-gradient"/><linearGradient id="linear-gradient-46" x1="1403.06" y1="4816.2" x2="1416.42" y2="4886.24" gradientTransform="translate(5071.32 -1130.8) rotate(89.08)" xlink:href="#linear-gradient"/><linearGradient id="linear-gradient-47" x1="1421.11" y1="4810.63" x2="1434.47" y2="4880.66" gradientTransform="translate(5071.32 -1130.8) rotate(89.08)" xlink:href="#linear-gradient"/><linearGradient id="linear-gradient-48" x1="1395.02" y1="4874.74" x2="1408.38" y2="4944.77" gradientTransform="translate(5071.32 -1130.8) rotate(89.08)" xlink:href="#linear-gradient"/><linearGradient id="linear-gradient-49" x1="1413.07" y1="4869.16" x2="1426.43" y2="4939.19" gradientTransform="translate(5071.32 -1130.8) rotate(89.08)" xlink:href="#linear-gradient"/><linearGradient id="linear-gradient-50" x1="456.45" y1="-200.21" x2="466.43" y2="-147.88" gradientTransform="translate(-344.6 620.3) rotate(-11.66)" xlink:href="#linear-gradient"/><linearGradient id="linear-gradient-51" x1="469.94" y1="-204.38" x2="479.92" y2="-152.04" gradientTransform="translate(-344.6 620.3) rotate(-11.66)" xlink:href="#linear-gradient"/><linearGradient id="linear-gradient-52" x1="325.51" y1="275.52" x2="302.49" y2="344.89" xlink:href="#linear-gradient"/><linearGradient id="linear-gradient-53" x1="79.29" y1="284.45" x2="51.86" y2="360.13" gradientTransform="translate(-139.79 68.24) rotate(-27.84)" xlink:href="#linear-gradient"/></defs><title>Closed Store Online</title><path d="M384.53,298.16A43.09,43.09,0,0,1,379,317.47c-.31.55-.63,1.09-1,1.61v-.24h-1.32l-176.5-.5L91.53,318l-46-.13c1.14-9.84-3.65-33.81-2.51-43.65.71-6.12,1.44-12.32,3.73-18.05,5.49-13.75,18.81-22.39,29.5-32.64,26-24.86,37.59-61.32,42-97,2.63-21.23,3.25-43.38,12.76-62.54,10.13-20.42,29.58-35.17,50.88-43.3S226.35,10.5,249.15,10.4c24.72-.11,52.75,3.79,67.15,23.88,5.82,8.13,8.62,18,13.21,26.87,15.29,29.57,50,47.74,58.34,79.95,4.74,18.2,0,37.3-3,55.86a299.28,299.28,0,0,0-3.43,63.64C382.05,273.41,385.25,285.94,384.53,298.16Z" transform="translate(-42.86 -10.4)" fill="#68d8fd" opacity="0.41"/><path d="M378.07,318.84v.42c-21.9,44.36-73.3,69.91-97.27,70.54l-167.43,1.42c-38.16,0-67.89-31.86-67.89-70l0-1.87,0-1.44Z" transform="translate(-42.86 -10.4)" fill="#68d8fd" opacity="0.66"/><path d="M89.26,335c-2,.75-4.34,2.52-3.4,4.4a3.77,3.77,0,0,0,1.73,1.44c20,10.55,43.43,11.87,66,13l88.06,4.3c14,.69,28.63,1.25,41.35-4.63a84.45,84.45,0,0,0,13.71-8.59q9.07-6.57,18-13.29c1.48-1.12,3.07-2.42,3.36-4.24.34-2.11-1.3-4.14-3.26-5a14.73,14.73,0,0,0-6.31-.71q-29.18,1-58.38.82c-12.36-.07-24.75-.28-37-1.84-20-2.54-39-5.26-59.14-2.73C132,320.66,110,327,89.26,335Z" transform="translate(-42.86 -10.4)" fill="url(#linear-gradient)"/><rect x="120.64" y="42.98" width="154.7" height="269.52" rx="18.77" fill="#68d8fd"/><rect x="120.64" y="42.98" width="154.7" height="269.52" rx="18.77" fill="url(#linear-gradient-2)"/><rect x="111.01" y="42.98" width="154.7" height="269.52" rx="18.77" fill="#68d8fd"/><path d="M296.88,84.23V282.54A14.91,14.91,0,0,1,282,297.45H181.16a14.9,14.9,0,0,1-14.91-14.91V84.23a12.29,12.29,0,0,1,12.28-12.29H284.6A12.3,12.3,0,0,1,296.88,84.23Z" transform="translate(-42.86 -10.4)" fill="#fff"/><path d="M296.88,216.67v65.87A14.91,14.91,0,0,1,282,297.45H193.75V216.67Z" transform="translate(-42.86 -10.4)" fill="#68d8fd"/><path d="M296.88,216.67v65.87A14.94,14.94,0,0,1,282,297.45H193.74V216.67Z" transform="translate(-42.86 -10.4)" fill="url(#linear-gradient-3)"/><path d="M296.88,254.67v27.87a14.79,14.79,0,0,1-4.12,10.27H196.92V254.67Z" transform="translate(-42.86 -10.4)" fill="url(#linear-gradient-4)"/><polygon points="121.88 61.67 90.39 95.34 230.21 95.34 258.27 61.2 121.88 61.67" fill="#68d8fd"/><polygon points="139.14 61.54 110.94 95.15 230.46 95.26 90.39 95.26 91.24 94.47 102.5 83.91 123.32 61.53 139.14 61.54" fill="url(#linear-gradient-5)"/><polygon points="180.55 61.06 152.53 95.15 272.06 95.26 131.99 95.26 132.83 94.47 159.48 61.53 180.55 61.06" fill="url(#linear-gradient-6)"/><polygon points="220.66 61.06 192.64 95.15 172.09 95.26 172.94 94.47 199.59 61.53 220.66 61.06" fill="url(#linear-gradient-7)"/><polygon points="258.47 61.06 230.46 95.15 209.91 95.26 210.76 94.47 237.41 61.53 258.47 61.06" fill="url(#linear-gradient-8)"/><path d="M195.06,105.74h20.05a10.1,10.1,0,0,1-20.05,0Z" transform="translate(-42.86 -10.4)" fill="#68d8fd"/><path d="M174.72,105.74h20.05a10.1,10.1,0,0,1-20.05,0Z" transform="translate(-42.86 -10.4)" fill="#68d8fd"/><path d="M255.79,105.63a10.1,10.1,0,0,1-20.06.11h20Z" transform="translate(-42.86 -10.4)" fill="#68d8fd"/><path d="M273.22,105.63c-.48,5.05-4.21,9-8.73,9s-8.18-3.88-8.71-8.87h17.37Z" transform="translate(-42.86 -10.4)" fill="#68d8fd"/><path d="M154.39,105.74h20.05a10.1,10.1,0,0,1-20.05,0Z" transform="translate(-42.86 -10.4)" fill="#68d8fd"/><path d="M215.39,105.74h20.05a10.1,10.1,0,0,1-20.05,0Z" transform="translate(-42.86 -10.4)" fill="#68d8fd"/><path d="M134.05,105.74h20.06a10.11,10.11,0,0,1-20.06,0Z" transform="translate(-42.86 -10.4)" fill="#68d8fd"/><path d="M195.06,105.74h20.05a10.1,10.1,0,0,1-20.05,0Z" transform="translate(-42.86 -10.4)" fill="url(#linear-gradient-9)"/><path d="M174.72,105.74h20.05a10.1,10.1,0,0,1-20.05,0Z" transform="translate(-42.86 -10.4)" fill="url(#linear-gradient-10)"/><path d="M255.77,105.74a10.1,10.1,0,0,1-20.06.12h20Z" transform="translate(-42.86 -10.4)" fill="url(#linear-gradient-11)"/><path d="M273.16,105.68c-.48,5-4.19,9-8.69,9s-8.17-3.88-8.69-8.87h17.31Z" transform="translate(-42.86 -10.4)" fill="url(#linear-gradient-12)"/><path d="M154.39,105.74h20.05a10.1,10.1,0,0,1-20.05,0Z" transform="translate(-42.86 -10.4)" fill="url(#linear-gradient-13)"/><path d="M215.39,105.74h20.05a10.1,10.1,0,0,1-20.05,0Z" transform="translate(-42.86 -10.4)" fill="url(#linear-gradient-14)"/><path d="M134.05,105.74h20.06a10.11,10.11,0,0,1-20.06,0Z" transform="translate(-42.86 -10.4)" fill="url(#linear-gradient-15)"/><polygon points="111.25 95.34 138.96 61.79 159.48 61.53 131.58 95.34 111.25 95.34" fill="url(#linear-gradient-16)"/><polygon points="152.01 95.34 179.73 61.79 199.01 61.34 172.35 95.34 152.01 95.34" fill="url(#linear-gradient-17)"/><polygon points="192.78 95.34 220.5 61.79 239.78 61.34 213.12 95.34 192.78 95.34" fill="url(#linear-gradient-18)"/><polygon points="230.23 95.4 257.12 90.08 258.58 61.06 230.23 95.4" fill="#68d8fd"/><polygon points="230.46 95.11 257.34 89.79 258.81 60.77 230.46 95.11" fill="url(#linear-gradient-19)"/><rect x="166.02" y="293.36" width="33" height="11.46" rx="5.73" fill="url(#linear-gradient-20)"/><path d="M239.56,187.4c-3.3,3.54-5.21,8.12-7.06,12.6l-5.26,12.76a2.26,2.26,0,0,0-.18,2,2.2,2.2,0,0,0,1.67.84,79.07,79.07,0,0,0,8.13.81q20.55,1.27,41.14.94a10.74,10.74,0,0,0,4.82-.82c3.79-1.92,4.09-7.17,3.42-11.36A60.27,60.27,0,0,0,282.16,191a15.94,15.94,0,0,0-2.94-4.92c-3.14-3.28-8.12-3.81-12.66-3.94C257.87,181.89,246.07,180.41,239.56,187.4Z" transform="translate(-42.86 -10.4)" fill="#68d8fd"/><path d="M270.57,201.21a4.58,4.58,0,0,1-.54,3.84c-.88,1.07-2.42,1.29-3.81,1.36-6.75.35-13.64-.81-20.22.73a4.13,4.13,0,0,0-2.47,1.27,4.47,4.47,0,0,0-.45,3.29l.56,4.83-6.57-1.2a1.54,1.54,0,0,1-.7-.24,1.72,1.72,0,0,1-.53-1.14,32.47,32.47,0,0,1-.69-7.66,10.81,10.81,0,0,1,2.88-7,13.45,13.45,0,0,1,5.87-3c5.08-1.46,10.38-1.88,15.65-2.31,2.29-.18,6.07-.69,8,.86C269.19,196.15,270.17,199.27,270.57,201.21Z" transform="translate(-42.86 -10.4)" fill="url(#linear-gradient-21)"/><path d="M215.23,193.89a2.59,2.59,0,0,0-1.55-.13,2.54,2.54,0,0,0-1,.74,22.33,22.33,0,0,0-2.16,2.86c-.41.63-4.31.19-4.23.94a3.3,3.3,0,0,0,.92,1.72c3.42,4,8.26,6.58,12.62,9.6,3,2.06,5.95,4.46,9.54,4.88a9.59,9.59,0,0,0,8.47-3.5c.84-1.06,1.45-2.55.82-3.75a4.27,4.27,0,0,0-1.41-1.36C229.56,200.36,224.54,196.3,215.23,193.89Z" transform="translate(-42.86 -10.4)" fill="#68d8fd"/><polygon points="197.08 190.43 203.13 205.92 192.14 205.92 197.08 190.43" fill="#fff"/><polygon points="197.08 190.43 203.13 205.92 192.14 205.92 197.08 190.43" fill="url(#linear-gradient-22)"/><polygon points="193.56 205.96 153.38 205.96 156.9 190.43 197.08 190.43 193.56 205.96" fill="#fff"/><polygon points="193.56 205.96 153.38 205.96 156.9 190.43 197.08 190.43 193.56 205.96" fill="url(#linear-gradient-23)"/><path d="M242.71,166.37a17.45,17.45,0,0,0,.17,4.95,9.31,9.31,0,0,0,5.6,6.41c2,.8,4.42,1,5.81,2.66s1.32,3.85,2.74,5.23a4.36,4.36,0,0,0,5.34.21,7.52,7.52,0,0,0,2.9-4.83,30.7,30.7,0,0,0,.34-5.76,54.84,54.84,0,0,1,.63-7.67,37.21,37.21,0,0,0,.65-5.35,17,17,0,0,0-1.19-6.09c-1.71-4.51-5.23-8.57-9.9-9.77A10.33,10.33,0,0,0,244.5,151c-1.17,1.89-1.06,3.81-1.2,6C243.1,160.15,242.91,163.26,242.71,166.37Z" transform="translate(-42.86 -10.4)" fill="url(#linear-gradient-24)"/><path d="M241.38,140.45c-.84-.35-2-.66-2.5.07a1.71,1.71,0,0,0-.26,1,5.6,5.6,0,0,0,1.21,3.54,3.47,3.47,0,0,0-2.33.69c-.94.94-.48,2.57.35,3.6s2,1.85,2.48,3.07c.26.64.32,1.35.56,2a1.81,1.81,0,0,0,1.48,1.29c.9,0,1.49-.91,2-1.66a9.44,9.44,0,0,1,12.78-2.32c3.91,2.77,5,8,5.76,12.74.4.27.63-.48.79-.94.34-1,1.92-.92,2.49-.06a2.8,2.8,0,0,1-.23,2.91c-.55.87-1.34,1.56-1.94,2.4a1.06,1.06,0,0,0-.26.73,1.08,1.08,0,0,0,.36.54,15.72,15.72,0,0,0,1.57,1.37,2,2,0,0,0,1.52.57,1.85,1.85,0,0,0,1-.66c2-2.27,2.81-5.42,3.25-8.45s.4-6.43-2-8.25c-.46-.36-1-.63-1.43-1a9.26,9.26,0,0,1-1.85-2.59,21.9,21.9,0,0,0-11-9.27,11.41,11.41,0,0,0-6.69-.93A10.59,10.59,0,0,1,241.38,140.45Z" transform="translate(-42.86 -10.4)" fill="#b7a451"/><rect x="154.06" y="209.9" width="99.96" height="29.64" fill="url(#linear-gradient-25)"/><path d="M206.38,196.76a7.31,7.31,0,0,0-1.26,6.1,2.25,2.25,0,0,0,1.22,1.56,2.28,2.28,0,0,0,1.52-.1c1.92-.65,3.56-2.16,5.58-2.37.9-.1,1.8.07,2.7,0,5.29-.18,1.24-5-.3-7.08C213.15,191.2,208.07,194.28,206.38,196.76Z" transform="translate(-42.86 -10.4)" fill="url(#linear-gradient-26)"/><path d="M202.75,209.47a.52.52,0,0,0,0,.38.55.55,0,0,0,.54.25.8.8,0,0,0,.82-.47.29.29,0,0,0-.1-.36,3.47,3.47,0,0,0-.74-.21,1.49,1.49,0,0,1-.75-.3.85.85,0,0,1-.18-1,2.14,2.14,0,0,1,2.15-1.29c.68,0,1.13.2,1.29.59a1.14,1.14,0,0,1,.05.61l-1.17.12c.05-.33-.09-.47-.5-.47a.74.74,0,0,0-.71.41.26.26,0,0,0,.14.33,3.42,3.42,0,0,0,.68.17,1.93,1.93,0,0,1,.77.29.86.86,0,0,1,.22,1.05,1.92,1.92,0,0,1-.7.95A2.64,2.64,0,0,1,203,211a2.08,2.08,0,0,1-1.1-.26.76.76,0,0,1-.35-.66,1.78,1.78,0,0,1,0-.47Z" transform="translate(-42.86 -10.4)" fill="#68d8fd"/><path d="M210.3,208.7a3.19,3.19,0,0,1-2.93,2.27c-1.31,0-1.86-.88-1.39-2.25a3.12,3.12,0,0,1,2.92-2.23C210.21,206.49,210.76,207.35,210.3,208.7Zm-1.12,0c.29-.83.06-1.33-.58-1.33a1.71,1.71,0,0,0-1.51,1.33c-.29.84-.07,1.37.59,1.37S208.89,209.56,209.18,208.71Z" transform="translate(-42.86 -10.4)" fill="#68d8fd"/><path d="M210.89,210.87h-.8a6,6,0,0,0,.3-.75l.93-2.72c.12-.36.18-.58.24-.83h1.16a6.14,6.14,0,0,0-.32.82l-.87,2.55h1.29a7.18,7.18,0,0,0,.9,0l-.33,1a8.8,8.8,0,0,0-.88,0Z" transform="translate(-42.86 -10.4)" fill="#68d8fd"/><path d="M215,207.32a4.46,4.46,0,0,0,.21-.75h1.9a1.62,1.62,0,0,1,1.37.51,1.74,1.74,0,0,1,.05,1.6,3.31,3.31,0,0,1-1.19,1.66,2.82,2.82,0,0,1-1.68.52h-1.92a5,5,0,0,0,.3-.75Zm.87,2.65a1.38,1.38,0,0,0,.88-.28,2,2,0,0,0,.68-1,1.07,1.07,0,0,0,0-.95c-.12-.18-.35-.27-.74-.27H216l-.84,2.49Z" transform="translate(-42.86 -10.4)" fill="#68d8fd"/><path d="M225,208.7a3.19,3.19,0,0,1-2.93,2.27c-1.31,0-1.86-.88-1.39-2.25a3.12,3.12,0,0,1,2.92-2.23C225,206.49,225.5,207.35,225,208.7Zm-1.12,0c.29-.83.06-1.33-.58-1.33a1.71,1.71,0,0,0-1.51,1.33c-.29.84-.07,1.37.59,1.37S223.63,209.56,223.92,208.71Z" transform="translate(-42.86 -10.4)" fill="#68d8fd"/><path d="M230.39,206.58a6.28,6.28,0,0,0-.31.78l-.61,1.77a2.62,2.62,0,0,1-2.64,1.84,1.23,1.23,0,0,1-1.37-1.85l.6-1.76a5.23,5.23,0,0,0,.23-.78h1.15a5.4,5.4,0,0,0-.31.78l-.6,1.77c-.22.65,0,1,.6,1a1.26,1.26,0,0,0,1.28-1l.6-1.77a4.94,4.94,0,0,0,.22-.78Z" transform="translate(-42.86 -10.4)" fill="#68d8fd"/><path d="M232.13,210.09a5.81,5.81,0,0,0-.23.78h-1.18a6,6,0,0,0,.31-.78l.89-2.6h-.63a8.15,8.15,0,0,0-.82,0l.33-1a7.82,7.82,0,0,0,.79,0h2.34c.37,0,.59,0,.84,0l-.33,1a5.92,5.92,0,0,0-.82,0H233Z" transform="translate(-42.86 -10.4)" fill="#68d8fd"/><path d="M202.75,209.47a.52.52,0,0,0,0,.38.55.55,0,0,0,.54.25.8.8,0,0,0,.82-.47.29.29,0,0,0-.1-.36,3.47,3.47,0,0,0-.74-.21,1.49,1.49,0,0,1-.75-.3.85.85,0,0,1-.18-1,2.14,2.14,0,0,1,2.15-1.29c.68,0,1.13.2,1.29.59a1.14,1.14,0,0,1,.05.61l-1.17.12c.05-.33-.09-.47-.5-.47a.74.74,0,0,0-.71.41.26.26,0,0,0,.14.33,3.42,3.42,0,0,0,.68.17,1.93,1.93,0,0,1,.77.29.86.86,0,0,1,.22,1.05,1.92,1.92,0,0,1-.7.95A2.64,2.64,0,0,1,203,211a2.08,2.08,0,0,1-1.1-.26.76.76,0,0,1-.35-.66,1.78,1.78,0,0,1,0-.47Z" transform="translate(-42.86 -10.4)" fill="url(#linear-gradient-27)"/><path d="M210.3,208.7a3.19,3.19,0,0,1-2.93,2.27c-1.31,0-1.86-.88-1.39-2.25a3.12,3.12,0,0,1,2.92-2.23C210.21,206.49,210.76,207.35,210.3,208.7Zm-1.12,0c.29-.83.06-1.33-.58-1.33a1.71,1.71,0,0,0-1.51,1.33c-.29.84-.07,1.37.59,1.37S208.89,209.56,209.18,208.71Z" transform="translate(-42.86 -10.4)" fill="url(#linear-gradient-28)"/><path d="M210.89,210.87h-.8a6,6,0,0,0,.3-.75l.93-2.72c.12-.36.18-.58.24-.83h1.16a6.14,6.14,0,0,0-.32.82l-.87,2.55h1.29a7.18,7.18,0,0,0,.9,0l-.33,1a8.8,8.8,0,0,0-.88,0Z" transform="translate(-42.86 -10.4)" fill="url(#linear-gradient-29)"/><path d="M215,207.32a4.46,4.46,0,0,0,.21-.75h1.9a1.62,1.62,0,0,1,1.37.51,1.74,1.74,0,0,1,.05,1.6,3.31,3.31,0,0,1-1.19,1.66,2.82,2.82,0,0,1-1.68.52h-1.92a5,5,0,0,0,.3-.75Zm.87,2.65a1.38,1.38,0,0,0,.88-.28,2,2,0,0,0,.68-1,1.07,1.07,0,0,0,0-.95c-.12-.18-.35-.27-.74-.27H216l-.84,2.49Z" transform="translate(-42.86 -10.4)" fill="url(#linear-gradient-30)"/><path d="M225,208.7a3.19,3.19,0,0,1-2.93,2.27c-1.31,0-1.86-.88-1.39-2.25a3.12,3.12,0,0,1,2.92-2.23C225,206.49,225.5,207.35,225,208.7Zm-1.12,0c.29-.83.06-1.33-.58-1.33a1.71,1.71,0,0,0-1.51,1.33c-.29.84-.07,1.37.59,1.37S223.63,209.56,223.92,208.71Z" transform="translate(-42.86 -10.4)" fill="url(#linear-gradient-31)"/><path d="M230.39,206.58a6.28,6.28,0,0,0-.31.78l-.61,1.77a2.62,2.62,0,0,1-2.64,1.84,1.23,1.23,0,0,1-1.37-1.85l.6-1.76a5.23,5.23,0,0,0,.23-.78h1.15a5.4,5.4,0,0,0-.31.78l-.6,1.77c-.22.65,0,1,.6,1a1.26,1.26,0,0,0,1.28-1l.6-1.77a4.94,4.94,0,0,0,.22-.78Z" transform="translate(-42.86 -10.4)" fill="url(#linear-gradient-32)"/><path d="M232.13,210.09a5.81,5.81,0,0,0-.23.78h-1.18a6,6,0,0,0,.31-.78l.89-2.6h-.63a8.15,8.15,0,0,0-.82,0l.33-1a7.82,7.82,0,0,0,.79,0h2.34c.37,0,.59,0,.84,0l-.33,1a5.92,5.92,0,0,0-.82,0H233Z" transform="translate(-42.86 -10.4)" fill="url(#linear-gradient-33)"/><path d="M113.23,322.77a84.33,84.33,0,0,0-15.59,2.91c-1.66.47-3.65,1.46-3.56,3.18.12,2.19,3.21,2.53,5.37,2.16q7.06-1.25,14-3a2.51,2.51,0,0,0,.93-.36c1.34-1-.22-3.08-.07-4.75" transform="translate(-42.86 -10.4)" fill="url(#linear-gradient-34)"/><path d="M123.27,320.88a7.79,7.79,0,0,0-3.84.43,2.68,2.68,0,0,0-1.56,3.17c.46,1.15,1.85,1.58,3.07,1.73a5.45,5.45,0,0,0,3.8-.62c1.08-.76,1.55-2.47.63-3.41" transform="translate(-42.86 -10.4)" fill="url(#linear-gradient-35)"/><path d="M143.51,328.92a84.28,84.28,0,0,0-15.6,2.91c-1.66.47-3.65,1.46-3.56,3.18.13,2.19,3.21,2.53,5.37,2.15,4.71-.82,9.4-1.81,14-3a2.72,2.72,0,0,0,.92-.36c1.34-1-.21-3.08-.07-4.75" transform="translate(-42.86 -10.4)" fill="url(#linear-gradient-36)"/><path d="M153.54,327a7.74,7.74,0,0,0-3.83.42,2.69,2.69,0,0,0-1.57,3.18c.46,1.15,1.85,1.58,3.07,1.73a5.49,5.49,0,0,0,3.81-.62c1.07-.76,1.54-2.47.62-3.41" transform="translate(-42.86 -10.4)" fill="url(#linear-gradient-37)"/><path d="M102.43,342.37a91.37,91.37,0,0,0-14.77,8.5c-1.52,1.08-3.19,2.79-2.47,4.51.9,2.17,4.15,1.42,6.21.26q6.72-3.76,13.17-8a2.56,2.56,0,0,0,.8-.7c1-1.49-1.31-3-1.76-4.78" transform="translate(-42.86 -10.4)" fill="url(#linear-gradient-38)"/><path d="M111.94,336.87a8.37,8.37,0,0,0-3.74,1.8,2.88,2.88,0,0,0-.45,3.78c.87,1,2.43.94,3.73.65a5.81,5.81,0,0,0,3.63-2c.82-1.15.68-3.05-.58-3.68" transform="translate(-42.86 -10.4)" fill="url(#linear-gradient-39)"/><path d="M322.89,339.07A91.86,91.86,0,0,0,307,333c-1.79-.5-4.18-.71-5.06.93-1.11,2.07,1.53,4.11,3.72,5q7.17,2.82,14.54,5.14a2.73,2.73,0,0,0,1,.18c1.79-.16,1.53-2.94,2.6-4.39" transform="translate(-42.86 -10.4)" fill="url(#linear-gradient-40)"/><path d="M333.15,343a8.29,8.29,0,0,0-3.76-1.76,2.87,2.87,0,0,0-3.21,2c-.22,1.31.81,2.48,1.85,3.31a5.8,5.8,0,0,0,3.83,1.56c1.41-.09,2.8-1.4,2.49-2.77" transform="translate(-42.86 -10.4)" fill="url(#linear-gradient-41)"/><path d="M344.64,333.4a90.49,90.49,0,0,0-15.93-6.08c-1.79-.5-4.17-.71-5,.93-1.11,2.07,1.53,4.12,3.72,5q7.17,2.83,14.54,5.14a2.71,2.71,0,0,0,1.05.19c1.79-.17,1.53-2.95,2.6-4.39" transform="translate(-42.86 -10.4)" fill="url(#linear-gradient-42)"/><path d="M354.91,337.29a8.45,8.45,0,0,0-3.76-1.76,2.9,2.9,0,0,0-3.22,2c-.21,1.31.82,2.48,1.86,3.3a5.82,5.82,0,0,0,3.83,1.57c1.41-.09,2.8-1.4,2.49-2.78" transform="translate(-42.86 -10.4)" fill="url(#linear-gradient-43)"/><path d="M271.9,360.62a91.13,91.13,0,0,0-5.61-16.1c-.77-1.69-2.14-3.65-4-3.27-2.31.49-2.17,3.82-1.42,6.06q2.46,7.31,5.43,14.43a2.66,2.66,0,0,0,.54.92c1.27,1.27,3.23-.72,5-.84" transform="translate(-42.86 -10.4)" fill="url(#linear-gradient-44)"/><path d="M275.53,371a8.42,8.42,0,0,0-1.07-4c-.79-1.16-2.43-1.87-3.63-1.15s-1.38,2.21-1.34,3.54a5.87,5.87,0,0,0,1.27,3.94c1,1,2.87,1.24,3.73.12" transform="translate(-42.86 -10.4)" fill="url(#linear-gradient-45)"/><path d="M257.71,363.93a91.13,91.13,0,0,0-5.61-16.1c-.77-1.69-2.14-3.64-4-3.26-2.31.48-2.17,3.81-1.42,6.05q2.46,7.31,5.43,14.43a2.64,2.64,0,0,0,.54.93c1.27,1.26,3.23-.73,5-.85" transform="translate(-42.86 -10.4)" fill="url(#linear-gradient-46)"/><path d="M261.34,374.3a8.42,8.42,0,0,0-1.07-4c-.79-1.16-2.43-1.87-3.63-1.15s-1.38,2.21-1.34,3.54a5.87,5.87,0,0,0,1.27,3.94c1,1,2.87,1.24,3.73.12" transform="translate(-42.86 -10.4)" fill="url(#linear-gradient-47)"/><path d="M199.05,356.84a91.34,91.34,0,0,0-5.6-16.1c-.77-1.69-2.15-3.65-4-3.27-2.31.48-2.17,3.82-1.42,6q2.44,7.32,5.42,14.44a2.83,2.83,0,0,0,.54.92c1.28,1.26,3.24-.72,5-.84" transform="translate(-42.86 -10.4)" fill="url(#linear-gradient-48)"/><path d="M202.69,367.2a8.49,8.49,0,0,0-1.08-4A2.88,2.88,0,0,0,198,362c-1.14.68-1.37,2.22-1.33,3.55a5.84,5.84,0,0,0,1.27,3.94c1,1,2.87,1.24,3.72.11" transform="translate(-42.86 -10.4)" fill="url(#linear-gradient-49)"/><path d="M75.22,345.2a67.94,67.94,0,0,0-11,6.35c-1.13.81-2.38,2.09-1.85,3.37.68,1.62,3.11,1.06,4.65.2q5-2.82,9.84-6a2,2,0,0,0,.6-.52c.75-1.11-1-2.27-1.32-3.57" transform="translate(-42.86 -10.4)" fill="url(#linear-gradient-50)"/><path d="M82.33,341.09a6.35,6.35,0,0,0-2.8,1.34,2.17,2.17,0,0,0-.34,2.83,2.89,2.89,0,0,0,2.79.49,4.42,4.42,0,0,0,2.72-1.49,1.91,1.91,0,0,0-.44-2.75" transform="translate(-42.86 -10.4)" fill="url(#linear-gradient-51)"/><polygon points="322.96 320.98 316.97 322.72 300.37 309.06 303.65 293.22 309.65 291.49 332.23 303.42 322.96 320.98" fill="#68d8fd"/><polygon points="322.96 320.98 316.97 322.72 300.37 309.06 303.65 293.22 309.65 291.49 332.23 303.42 322.96 320.98" fill="url(#linear-gradient-52)"/><rect x="340.4" y="308.44" width="25.54" height="19.87" transform="translate(146.66 -138.47) rotate(27.84)" fill="#68d8fd"/><rect x="55.02" y="306.24" width="25.54" height="19.87" transform="translate(112.62 -5.47) rotate(27.84)" fill="#68d8fd"/><rect x="55.02" y="306.24" width="25.54" height="19.87" transform="translate(112.62 -5.47) rotate(27.84)" fill="url(#linear-gradient-53)"/><rect x="63.37" y="310.82" width="25.54" height="19.87" transform="translate(115.72 -8.84) rotate(27.84)" fill="#68d8fd"/></svg>